<?xml version="1.0" standalone="no"?>
<!DOCTYPE svg PUBLIC "-//W3C//DTD SVG 20010904//EN"
 "http://www.w3.org/TR/2001/REC-SVG-20010904/DTD/svg10.dtd">
<svg version="1.0" xmlns="http://www.w3.org/2000/svg"
 width="1080.000000pt" height="1080.000000pt" viewBox="0 0 1080.000000 1080.000000"
 preserveAspectRatio="xMidYMid meet">
<metadata>
Created by potrace 1.11, written by Peter Selinger 2001-2013
</metadata>
<g transform="translate(0.000000,1080.000000) scale(0.100000,-0.100000)"
fill="#000000" stroke="none">
<path d="M8345 9660 c-24 -27 -95 -60 -128 -60 -15 0 -54 13 -86 30 l-59 29
-7 -39 c-8 -49 -19 -57 -86 -70 -29 -6 -70 -21 -89 -35 -45 -31 -74 -31 -142
0 -45 21 -68 25 -150 25 -53 0 -109 -5 -125 -11 -20 -7 -39 -7 -69 1 -33 10
-47 9 -65 -1 -13 -8 -69 -16 -125 -19 -124 -8 -171 -28 -252 -111 -51 -51 -64
-59 -96 -59 -44 0 -86 -36 -86 -74 0 -43 -10 -56 -44 -56 -17 0 -50 9 -73 20
l-43 19 -11 -22 c-6 -12 -24 -33 -40 -47 -30 -26 -129 -184 -129 -206 0 -7 6
-14 13 -16 6 -2 38 -31 70 -65 55 -58 59 -65 67 -127 5 -39 16 -77 29 -95 17
-24 21 -44 21 -114 0 -63 -4 -88 -15 -97 -9 -8 -13 -21 -9 -35 9 -35 -11 -62
-65 -90 -57 -28 -132 -111 -160 -177 -10 -25 -24 -49 -30 -52 -22 -14 -12 -72
19 -112 17 -23 30 -51 30 -70 0 -41 -50 -117 -97 -147 -34 -22 -52 -25 -186
-31 -143 -6 -149 -5 -208 20 -85 35 -118 30 -147 -23 -14 -25 -21 -51 -17 -62
3 -10 32 -46 65 -78 34 -34 66 -79 76 -104 10 -24 32 -61 51 -82 18 -20 33
-42 33 -48 0 -6 -24 -34 -54 -64 -62 -62 -96 -75 -235 -84 -81 -5 -95 -9 -112
-29 -14 -18 -17 -33 -12 -67 5 -36 1 -52 -22 -90 -16 -28 -25 -55 -21 -67 6
-27 -8 -54 -52 -95 -29 -28 -33 -37 -26 -60 4 -16 6 -38 5 -50 -2 -24 -2 -86
-1 -125 3 -66 -18 -126 -64 -191 -60 -84 -101 -125 -131 -133 -31 -8 -42 0
-50 35 -7 31 -85 111 -107 111 -7 0 -35 -11 -63 -25 -58 -28 -73 -30 -99 -10
-34 25 -55 17 -116 -45 -33 -33 -67 -60 -78 -60 -10 0 -33 -8 -53 -18 -19 -10
-55 -26 -81 -35 -50 -20 -64 -38 -48 -67 12 -22 67 -35 105 -26 14 4 25 2 25
-2 0 -13 -34 -42 -49 -42 -7 0 -73 -17 -147 -37 -112 -31 -137 -35 -159 -25
-20 9 -25 19 -25 46 0 34 0 35 -37 29 -21 -3 -54 -14 -74 -24 -36 -18 -135
-122 -158 -167 -7 -13 -32 -32 -57 -42 -50 -22 -55 -32 -74 -141 -10 -62 -10
-86 0 -126 12 -45 11 -56 -9 -113 -26 -77 -27 -122 -4 -161 23 -38 12 -56 -49
-87 -56 -28 -551 -152 -607 -152 -22 0 -79 9 -128 21 -140 34 -219 16 -325
-72 -26 -21 -51 -39 -56 -39 -5 0 -29 11 -53 24 -50 28 -136 46 -218 46 -31 0
-167 -7 -303 -17 l-248 -17 -72 32 c-88 38 -328 133 -533 212 -82 32 -158 61
-168 65 -16 7 -17 4 -11 -21 20 -84 50 -141 106 -201 72 -78 93 -122 122 -264
3 -14 19 -43 36 -64 16 -21 30 -46 30 -55 0 -29 114 -164 166 -197 27 -18 95
-56 151 -86 56 -30 124 -74 150 -97 46 -40 50 -42 97 -36 l49 5 -8 -42 c-4
-23 -7 -58 -7 -77 1 -19 4 -111 7 -205 5 -131 3 -182 -8 -224 l-15 -53 34 -14
c41 -17 80 -19 166 -9 80 9 94 -4 57 -56 -27 -38 -27 -77 0 -132 11 -22 19
-42 17 -44 -1 -2 -31 -6 -65 -9 -58 -7 -62 -9 -56 -28 21 -68 28 -64 -87 -63
-70 1 -127 -5 -178 -17 -136 -35 -160 -51 -180 -124 -14 -56 -48 -74 -79 -43
-26 26 -48 27 -56 1 -6 -20 -15 -24 -47 -21 -22 2 -45 -33 -64 -95 -8 -28 -26
-62 -39 -74 -29 -27 -48 -84 -52 -150 -4 -96 -21 -177 -46 -230 -40 -81 -37
-90 24 -90 l51 0 -4 -55 c-3 -30 -1 -55 4 -55 4 0 31 9 60 20 29 11 72 20 96
20 23 0 42 3 42 6 0 3 -9 17 -20 31 -11 14 -17 29 -14 34 10 17 70 9 92 -11
26 -24 27 -33 7 -50 -25 -21 -17 -30 28 -30 51 0 60 6 47 31 -14 25 18 54 75
68 43 11 94 5 174 -18 19 -6 66 -8 105 -5 64 5 79 3 149 -26 92 -37 122 -37
121 0 -1 14 -4 32 -8 41 -12 28 20 49 74 49 63 0 281 -43 347 -69 41 -16 58
-18 79 -11 35 14 68 4 59 -18 -4 -10 -9 -22 -12 -28 -6 -17 41 -26 72 -14 25
9 25 11 11 32 -34 48 31 60 189 37 69 -11 77 -10 96 7 19 17 40 19 163 21 325
4 389 9 437 30 54 24 64 36 44 53 -11 10 -33 9 -100 -1 -47 -7 -88 -9 -91 -6
-11 10 59 46 103 53 31 5 50 2 68 -10 13 -9 36 -16 49 -16 15 0 30 -8 36 -19
14 -28 13 -31 -13 -31 -13 0 -27 -3 -30 -6 -4 -4 25 -37 63 -73 79 -75 85 -94
43 -150 -15 -19 -30 -55 -34 -81 -4 -25 -11 -56 -15 -69 -6 -21 -5 -23 12 -16
48 19 113 18 150 -4 34 -21 38 -21 55 -5 15 14 31 16 81 11 51 -5 152 -31 166
-43 2 -1 -5 -15 -15 -30 -14 -22 -17 -42 -14 -99 6 -105 5 -185 -4 -238 -9
-57 3 -85 47 -111 20 -12 41 -16 64 -13 19 3 34 2 34 -3 0 -5 17 -14 38 -20
20 -6 51 -19 69 -28 26 -13 38 -14 67 -5 l36 11 -6 -40 c-6 -38 -6 -40 17 -36
17 2 30 16 44 45 21 44 104 122 134 124 9 1 43 1 76 0 87 -4 106 14 114 105 5
53 10 70 22 72 11 2 19 -6 23 -22 9 -35 27 -32 50 7 18 32 18 32 27 9 7 -19
12 -21 29 -12 10 6 43 10 72 10 29 0 98 1 153 2 91 3 103 1 135 -20 30 -20 45
-23 102 -20 60 3 71 7 101 36 18 18 41 32 50 32 10 0 28 7 41 15 24 16 158 56
165 50 2 -2 -2 -19 -8 -36 -9 -27 -9 -36 4 -48 20 -20 128 -28 143 -10 7 8 23
28 37 46 25 31 26 32 55 15 23 -13 34 -14 47 -6 29 18 22 55 -12 74 -44 24
-47 71 -6 101 38 28 38 43 6 92 -14 20 -35 74 -46 119 -15 60 -29 92 -55 121
-19 23 -34 46 -34 52 0 7 -14 30 -31 51 -28 35 -31 44 -26 94 4 58 -6 105 -26
113 -7 3 -40 -2 -74 -10 -81 -20 -105 -8 -158 78 -66 107 -72 134 -46 215 23
75 26 122 8 174 l-12 35 -81 6 c-67 5 -92 12 -154 44 -56 30 -76 46 -86 72
-36 85 -5 163 120 303 87 97 110 136 166 273 20 47 40 82 54 89 11 6 47 35 79
65 90 82 133 71 176 -46 44 -120 83 -136 201 -80 120 56 178 72 304 78 113 7
120 8 142 34 13 15 32 58 43 95 17 56 29 76 70 114 36 34 53 60 61 90 42 166
44 168 241 285 72 43 142 92 154 108 29 39 123 262 165 390 53 165 49 159 164
214 101 49 155 90 157 120 0 9 0 37 -1 62 -2 56 47 153 89 177 15 8 49 49 76
91 37 55 62 82 93 98 23 12 54 34 70 48 15 14 35 28 45 31 24 8 21 19 -10 39
-65 41 -76 86 -48 180 16 52 13 99 -11 167 -11 33 -11 40 5 60 10 13 26 38 35
56 9 17 23 32 31 32 8 0 36 13 62 29 27 16 86 41 133 56 135 45 173 104 114
175 -43 51 -78 63 -180 64 -77 1 -95 4 -114 21 -21 19 -21 25 -15 115 6 86 5
98 -13 120 l-20 24 -36 -32 c-20 -18 -39 -32 -41 -32 -2 0 -20 8 -40 17 -33
16 -35 20 -35 65 0 39 -6 54 -32 83 -17 20 -49 45 -70 56 l-39 20 36 33 c19
18 35 41 35 50 0 35 -32 91 -81 143 -66 69 -64 93 6 110 49 12 85 41 85 70 0
8 -14 28 -30 45 -29 29 -32 29 -94 23 -76 -8 -94 5 -53 41 50 43 30 144 -34
166 -25 9 58 117 129 166 75 53 102 55 211 17 59 -20 94 -25 169 -25 62 0 121
-7 175 -21 181 -46 377 -6 524 106 28 21 60 35 90 40 96 13 256 130 461 338
l124 124 -104 0 c-84 0 -126 6 -228 32 -147 38 -188 55 -253 104 -52 41 -71
44 -142 22 -27 -8 -49 -13 -50 -12 0 1 -7 22 -15 47 -13 38 -22 48 -62 67 -51
24 -57 38 -38 89 14 37 15 103 2 145 -6 19 -14 46 -17 61 -4 20 -14 29 -42 38
-80 24 -92 32 -103 65 -13 40 -36 62 -108 100 -45 24 -61 39 -77 73 -30 64
-58 77 -90 42z"/>
<path d="M400 400 l0 -400 5000 0 5000 0 0 400 0 400 -5000 0 -5000 0 0 -400z
m2192 123 c23 -20 23 -57 1 -74 -15 -11 -16 -11 -5 1 27 31 11 72 -33 83 -19
4 -19 5 -1 6 11 0 28 -6 38 -16z m-69 -8 c-3 -9 -8 -14 -10 -11 -3 3 -2 9 2
15 9 16 15 13 8 -4z m-1760 -114 c22 -61 43 -108 47 -104 4 4 24 56 45 116 21
59 42 107 47 107 11 0 9 -5 -42 -149 -23 -64 -44 -107 -53 -109 -15 -3 -17 0
-67 143 -15 44 -31 88 -36 99 -5 13 -3 17 6 14 8 -2 32 -55 53 -117z m517 89
c0 -23 4 -30 20 -30 11 0 20 -4 20 -10 0 -5 -10 -10 -21 -10 -20 0 -21 -4 -17
-71 3 -55 8 -74 23 -85 23 -17 14 -29 -13 -15 -11 6 -22 25 -26 42 -10 51 -7
209 4 209 6 0 10 -13 10 -30z m515 16 c25 -11 33 -19 29 -30 -7 -19 -5 -19
-40 -1 -36 18 -55 19 -78 2 -28 -21 -9 -45 49 -62 87 -25 108 -74 54 -127 -29
-29 -33 -30 -90 -25 -68 6 -72 8 -64 29 5 13 12 14 40 5 50 -15 100 1 100 33
0 16 -8 28 -25 36 -87 40 -105 51 -108 67 -14 70 53 106 133 73z m105 -16 c0
-25 4 -30 25 -30 16 0 25 -6 25 -15 0 -9 -9 -15 -25 -15 -24 0 -25 -3 -25 -60
0 -55 2 -62 25 -72 14 -6 25 -15 25 -20 0 -18 -31 -20 -55 -4 -24 16 -25 20
-25 131 0 96 3 115 15 115 10 0 15 -10 15 -30z m482 -32 l3 -62 36 32 c20 18
45 32 55 32 14 0 9 -9 -21 -40 l-39 -40 42 -60 c40 -57 41 -60 20 -60 -16 0
-32 14 -53 45 -16 25 -33 45 -37 45 -5 0 -8 -20 -8 -45 0 -38 -3 -45 -20 -45
-19 0 -20 7 -20 130 0 122 1 130 20 130 16 0 19 -8 22 -62z m193 30 c1 -20 -2
-24 -11 -17 -8 7 -14 6 -17 -3 -3 -7 -6 2 -6 20 -1 27 3 33 17 30 11 -2 17
-13 17 -30z m-44 -35 c13 -16 12 -17 -3 -4 -17 13 -22 21 -14 21 2 0 10 -8 17
-17z m-1502 -19 c12 -15 21 -40 21 -55 0 -29 0 -29 -65 -29 -72 0 -83 -12 -44
-51 17 -17 30 -20 65 -16 43 4 59 -5 28 -17 -45 -17 -106 3 -123 41 -45 98 56
206 118 127z m191 16 c17 -11 10 -13 -40 -10 -47 2 -75 -28 -75 -80 0 -55 26
-80 82 -80 27 0 42 -4 38 -10 -9 -15 -78 -12 -102 5 -50 35 -50 135 0 170 24
17 74 20 97 5z m265 -13 c20 -16 28 -35 32 -69 5 -42 3 -50 -25 -78 -41 -41
-83 -41 -124 0 -28 28 -30 36 -25 78 9 82 84 119 142 69z m85 7 c0 -14 2 -14
22 0 24 17 38 20 38 9 0 -5 -14 -16 -30 -25 -29 -17 -30 -19 -30 -93 0 -43 -4
-75 -10 -75 -6 0 -10 40 -10 100 0 60 4 100 10 100 6 0 10 -7 10 -16z m537 1
c30 -21 44 -75 32 -120 -25 -88 -143 -88 -168 0 -20 72 20 135 84 135 17 0 40
-7 52 -15z m198 -5 c0 -10 -8 -14 -27 -12 -58 6 -91 -42 -67 -100 11 -28 36
-40 74 -35 12 1 20 -4 20 -13 0 -19 -48 -25 -85 -10 -63 26 -68 148 -6 179 31
15 91 9 91 -9z m5344 -83 c8 -26 17 -47 21 -47 4 0 13 21 21 47 8 25 20 48 26
50 8 3 4 -21 -11 -64 -13 -38 -29 -68 -36 -68 -7 0 -23 30 -36 68 -15 43 -19
67 -11 64 6 -2 18 -25 26 -50z m638 38 c2 -6 -9 -11 -23 -10 -38 0 -40 -20 -5
-35 69 -28 36 -101 -33 -74 -27 10 -18 22 17 20 38 -1 43 19 8 37 -36 18 -48
42 -31 62 14 17 61 17 67 0z m333 -20 c0 -35 16 -47 26 -20 4 8 13 15 22 15
13 0 13 -3 -2 -19 -16 -18 -16 -21 -1 -50 19 -38 8 -40 -22 -3 l-22 27 -1 -27
c0 -16 -4 -28 -10 -28 -6 0 -10 30 -10 70 0 40 4 70 10 70 6 0 10 -16 10 -35z
m580 32 c0 -4 -34 -104 -45 -136 -3 -8 -8 -11 -11 -8 -8 7 38 147 48 147 4 0
8 -2 8 -3z m98 -9 c21 -21 13 -45 -25 -77 l-38 -30 43 -1 c23 0 42 -4 42 -10
0 -5 -22 -10 -50 -10 -62 0 -65 15 -14 63 42 40 39 62 -8 53 -26 -5 -29 -4
-18 9 15 18 51 20 68 3z m110 4 c22 -14 27 -78 8 -107 -32 -49 -86 -21 -86 45
0 56 39 86 78 62z m119 -4 c14 -23 12 -106 -2 -118 -33 -27 -86 8 -70 46 4 11
7 27 6 37 -5 38 47 64 66 35z m121 4 c22 -14 27 -78 8 -107 -32 -49 -86 -21
-86 45 0 56 39 86 78 62z m122 -2 c0 -5 -11 -10 -25 -10 -32 0 -32 -16 -1 -24
27 -7 41 -35 31 -65 -7 -23 -37 -35 -65 -26 -31 10 -24 23 13 21 28 -1 32 2
32 24 0 21 -4 25 -30 24 -29 -1 -30 0 -27 32 4 31 7 34 38 34 19 0 34 -4 34
-10z m114 -12 c44 -63 -17 -154 -68 -102 -9 9 -16 32 -16 54 0 64 52 94 84 48z
m126 17 c0 -6 -60 -127 -66 -134 -2 -2 -7 -2 -10 1 -3 3 6 29 20 57 14 28 26
53 26 56 0 3 -13 5 -30 5 -16 0 -30 5 -30 10 0 6 20 10 45 10 25 0 45 -2 45
-5z m100 -5 c0 -5 -11 -10 -25 -10 -14 0 -29 -8 -35 -20 -10 -19 -9 -20 13
-15 24 6 57 -15 57 -36 0 -23 -22 -49 -42 -49 -54 0 -75 65 -37 114 20 25 69
37 69 16z m-2119 -48 c-15 -5 -14 -59 2 -65 6 -2 9 -8 5 -12 -13 -14 -36 15
-40 53 -7 54 0 67 24 45 11 -10 15 -19 9 -21z m359 13 c9 -10 9 -15 1 -15 -15
0 -14 -57 2 -63 6 -2 9 -7 6 -11 -15 -17 -37 8 -41 47 -7 58 5 74 32 42z
m-532 -7 c23 -23 13 -38 -24 -38 -46 0 -41 -23 7 -30 27 -4 30 -7 16 -13 -28
-11 -44 -9 -61 9 -32 31 -14 84 29 84 12 0 26 -5 33 -12z m109 5 c14 -6 10 -9
-17 -13 -29 -4 -35 -9 -35 -30 0 -21 5 -26 33 -28 36 -4 34 -22 -3 -22 -28 0
-55 24 -55 50 0 22 25 50 45 50 7 0 22 -3 32 -7z m177 -9 c21 -20 20 -43 -1
-66 -20 -22 -46 -23 -67 -2 -31 30 -9 84 34 84 10 0 26 -7 34 -16z m86 6 c0
-4 -7 -10 -15 -14 -9 -3 -15 -19 -15 -41 0 -19 -4 -35 -10 -35 -5 0 -10 22
-10 49 0 45 2 49 25 49 14 0 25 -4 25 -8z m274 -6 c31 -30 9 -84 -34 -84 -24
0 -50 26 -50 50 0 24 26 50 50 50 10 0 26 -7 34 -16z m113 9 c14 -6 10 -9 -17
-13 -29 -4 -35 -9 -35 -30 0 -21 5 -26 33 -28 36 -4 34 -22 -3 -22 -28 0 -55
24 -55 50 0 22 25 50 45 50 7 0 22 -3 32 -7z m258 -2 c3 -5 -9 -11 -27 -13
-28 -2 -33 -7 -33 -28 0 -21 5 -26 33 -28 36 -4 34 -22 -3 -22 -28 0 -55 24
-55 50 0 37 67 69 85 41z m99 -7 c21 -20 20 -43 -1 -66 -20 -22 -46 -23 -67
-2 -31 30 -9 84 34 84 10 0 26 -7 34 -16z m113 4 c7 -5 14 -5 18 2 10 16 42
12 49 -6 10 -25 7 -84 -4 -84 -5 0 -10 18 -10 41 0 33 -3 40 -17 37 -13 -2
-19 -14 -21 -41 -4 -50 -22 -47 -22 4 0 36 -2 40 -22 37 -19 -2 -24 -10 -26
-40 -5 -55 -22 -46 -22 10 0 48 0 49 33 49 17 0 37 -4 44 -9z m-327 -78 c0 -5
-4 -10 -10 -10 -5 0 -10 5 -10 10 0 6 5 10 10 10 6 0 10 -4 10 -10z"/>
<path d="M2550 500 c0 -5 5 -10 10 -10 6 0 10 5 10 10 0 6 -4 10 -10 10 -5 0
-10 -4 -10 -10z"/>
<path d="M936 418 c-28 -39 -21 -48 39 -48 59 0 67 9 45 51 -15 27 -64 25 -84
-3z"/>
<path d="M1386 424 c-50 -50 -21 -144 44 -144 48 0 80 50 66 104 -13 53 -75
75 -110 40z"/>
<path d="M2016 408 c-32 -46 -8 -118 39 -118 28 0 55 34 55 70 0 36 -27 70
-55 70 -13 0 -31 -10 -39 -22z"/>
<path d="M9354 365 c-9 -38 3 -75 26 -75 23 0 35 37 26 75 -4 16 -13 25 -26
25 -13 0 -22 -9 -26 -25z"/>
<path d="M9482 373 c5 -26 38 -29 38 -4 0 15 -6 21 -21 21 -14 0 -19 -5 -17
-17z"/>
<path d="M9474 325 c-8 -21 10 -39 30 -32 22 9 20 24 -4 37 -16 9 -22 8 -26
-5z"/>
<path d="M9594 365 c-9 -38 3 -75 26 -75 23 0 35 37 26 75 -4 16 -13 25 -26
25 -13 0 -22 -9 -26 -25z"/>
<path d="M9824 365 c-9 -38 3 -75 26 -75 23 0 35 37 26 75 -4 16 -13 25 -26
25 -13 0 -22 -9 -26 -25z"/>
<path d="M10046 331 c-11 -18 6 -42 28 -39 29 4 29 42 -1 46 -11 2 -24 -1 -27
-7z"/>
<path d="M7765 340 c-3 -5 3 -10 14 -10 11 0 23 5 26 10 3 6 -3 10 -14 10 -11
0 -23 -4 -26 -10z"/>
<path d="M8044 336 c-10 -26 4 -48 28 -44 17 2 23 10 23 28 0 18 -6 26 -23 28
-13 2 -25 -3 -28 -12z"/>
<path d="M8404 336 c-10 -26 4 -48 28 -44 17 2 23 10 23 28 0 18 -6 26 -23 28
-13 2 -25 -3 -28 -12z"/>
<path d="M8874 336 c-10 -26 4 -48 28 -44 17 2 23 10 23 28 0 18 -6 26 -23 28
-13 2 -25 -3 -28 -12z"/>
</g>
</svg>
